<svg width="162" height="162" viewBox="0 0 162 162" fill="none" xmlns="http://www.w3.org/2000/svg">
<g clip-path="url(#clip0_2_214)">
<path d="M80.6667 161.333C125.218 161.333 161.333 125.218 161.333 80.6667C161.333 36.1157 125.218 0 80.6667 0C36.1157 0 0 36.1157 0 80.6667C0 125.218 36.1157 161.333 80.6667 161.333Z" fill="#070707"/>
<path d="M80.6667 115.333C99.8125 115.333 115.333 99.8125 115.333 80.6667C115.333 61.5208 99.8125 46 80.6667 46C61.5208 46 46 61.5208 46 80.6667C46 99.8125 61.5208 115.333 80.6667 115.333Z" fill="white"/>
<path d="M80.6666 86C83.6122 86 86 83.6122 86 80.6667C86 77.7211 83.6122 75.3333 80.6666 75.3333C77.7211 75.3333 75.3333 77.7211 75.3333 80.6667C75.3333 83.6122 77.7211 86 80.6666 86Z" fill="#070707"/>
<path d="M80.6667 6.99668C51.6277 7.26111 24.0431 25.779 12.9676 52.6308C9.20493 61.4557 7.20822 71.0278 6.99668 80.6667C6.78908 71.002 8.61794 61.2995 12.2571 52.3353C23.0225 25.1157 51.337 6.10286 80.6667 6.99668Z" fill="white"/>
<path d="M17.4267 80.6667C16.5784 55.4661 32.9312 31.1081 56.3243 21.884C64.028 18.7686 72.3669 17.2083 80.6667 17.4167C72.3924 17.6278 64.1844 19.3556 56.6194 22.5941C33.5945 32.1281 17.7362 55.7581 17.4267 80.6667Z" fill="white"/>
<path d="M27.8467 80.6667C27.182 55.4635 45.53 33.0872 70.3173 28.631C72.041 28.4144 73.7573 28.158 75.4775 27.977L80.6667 27.8467C73.7563 28.0667 66.9151 29.5251 60.6097 32.2362C41.3957 40.2113 28.2238 59.8913 27.8467 80.6667Z" fill="white"/>
<path d="M38.2767 80.6667C37.5866 60.4422 52.4446 42.3211 72.3504 38.8487C73.7369 38.6818 75.1168 38.483 76.499 38.3453L80.6667 38.2666C75.1209 38.4845 69.643 39.673 64.5971 41.8601C49.2099 48.2938 38.6935 64.0203 38.2767 80.6667Z" fill="white"/>
</g>
<defs>
<clipPath id="clip0_2_214">
<rect width="161.333" height="161.333" fill="white"/>
</clipPath>
</defs>
</svg>
