<svg width="159" height="181" viewBox="0 0 159 181" fill="none" xmlns="http://www.w3.org/2000/svg">
<g clip-path="url(#clip0_1_59)">
<path d="M79.5 0C35.0917 0 -0.914642 36.0445 -0.914642 80.5C-0.914642 124.955 35.0917 161 79.5 161C123.908 161 159.915 124.955 159.915 80.5C159.915 36.0445 123.908 0 79.5 0ZM121.786 80.519C121.786 103.866 102.813 122.86 79.5 122.86C56.1873 122.86 37.2136 103.866 37.2136 80.519V80.5C37.2231 57.1625 56.2063 38.1401 79.5095 38.1401C102.813 38.1401 121.777 57.1625 121.786 80.5V80.519Z" fill="black"/>
<path d="M79.5096 39.0069C56.6821 39.0069 38.089 57.6388 38.0795 80.5V80.519C38.0795 103.39 56.6631 121.993 79.5 121.993C102.337 121.993 120.921 103.39 120.921 80.519V80.5C120.911 57.6388 102.337 39.0069 79.5096 39.0069ZM114.488 80.5C114.488 99.8463 98.8258 115.535 79.5 115.535C60.1743 115.535 44.5024 99.8463 44.5024 80.5H44.5119C44.5119 61.1537 60.1743 45.4652 79.5 45.4652C98.8258 45.4652 114.498 61.1537 114.498 80.5H114.488Z" fill="black"/>
<path d="M79.5095 38.1401C56.2063 38.1401 37.2231 57.1625 37.2136 80.5V80.519C37.2136 103.866 56.1873 122.86 79.5 122.86C102.813 122.86 121.786 103.866 121.786 80.519V80.5C121.777 57.1625 102.813 38.1401 79.5095 38.1401ZM120.921 80.519C120.921 103.39 102.337 121.993 79.5 121.993C56.663 121.993 38.0794 103.39 38.0794 80.519V80.5C38.089 57.6388 56.6821 39.0069 79.5095 39.0069C102.337 39.0069 120.911 57.6388 120.921 80.5V80.519Z" fill="white"/>
<path d="M79.5 45.4652C60.1742 45.4652 44.5118 61.1537 44.5118 80.5H44.5023C44.5023 99.8463 60.1742 115.535 79.5 115.535C98.8258 115.535 114.488 99.8463 114.488 80.5H114.498C114.498 61.1537 98.8258 45.4652 79.5 45.4652ZM79.5 88.9967C74.8184 88.9967 71.0218 85.1865 71.0218 80.5C71.0218 75.8134 74.8184 72.0032 79.5 72.0032C84.1815 72.0032 87.9782 75.8134 87.9782 80.5C87.9782 85.1865 84.1815 88.9967 79.5 88.9967Z" fill="white"/>
<path d="M79.5 88.9967C84.1824 88.9967 87.9782 85.1926 87.9782 80.5C87.9782 75.8074 84.1824 72.0033 79.5 72.0033C74.8176 72.0033 71.0218 75.8074 71.0218 80.5C71.0218 85.1926 74.8176 88.9967 79.5 88.9967Z" fill="black"/>
<path d="M131.263 29.1763C110.758 9.52414 79.0734 3.24157 52.789 14.0759C44.0743 17.5378 36.047 22.7276 29.1276 29.1763L34.2558 24.262C36.0901 22.7666 37.9944 21.3478 39.8679 19.8825C68.1248 0.131121 107.604 4.03823 131.263 29.1763Z" fill="white"/>
<path d="M36.3576 36.414C56.5303 14.7166 90.6837 11.345 114.849 28.3846C116.455 29.65 118.086 30.8753 119.656 32.1659L124.04 36.407C118.068 30.9037 111.173 26.4736 103.694 23.5224C81.1313 14.2772 54.0283 19.6554 36.3576 36.414Z" fill="white"/>
<path d="M43.5807 43.6448C58.7347 26.883 85.3058 22.8714 104.831 34.1643C109.288 36.7054 113.29 39.9276 116.81 43.6449C111.786 39.0867 106.023 35.4152 99.7812 32.9731C80.9411 25.3097 58.4165 29.7777 43.5807 43.6448Z" fill="white"/>
<path d="M11.3788 180.827H8.78499V175.426H3.7268V180.827H1.13293V168.224H3.7268V173.331H8.78499V168.224H11.3788V180.827Z" fill="black"/>
<path d="M20.9073 178.23H16.3594L15.4949 180.827H12.7366L17.4228 168.224H19.8265L24.5388 180.827H21.7809L20.9073 178.23ZM17.0599 176.127H20.2072L18.6248 171.41L17.0599 176.127Z" fill="black"/>
<path d="M30.3751 176.213H28.3085V180.827H25.7147V168.224H30.3925C31.8798 168.224 33.0268 168.556 33.8339 169.22C34.6409 169.883 35.0442 170.821 35.0442 172.033C35.0442 172.892 34.8582 173.61 34.4866 174.184C34.115 174.758 33.5514 175.215 32.7962 175.556L35.5196 180.706V180.827H32.7356L30.3751 176.213ZM28.3085 174.11H30.4013C31.0526 174.11 31.5569 173.944 31.9143 173.613C32.2717 173.281 32.4503 172.823 32.4503 172.24C32.4503 171.646 32.2818 171.179 31.9446 170.839C31.6075 170.498 31.0898 170.328 30.3925 170.328H28.3085V174.11Z" fill="black"/>
<path d="M40.4051 168.224L43.6388 177.365L46.8555 168.224H50.262V180.827H47.6594V177.382L47.9189 171.436L44.5208 180.827H42.7399L39.3505 171.444L39.6095 177.382V180.827H37.0157V168.224H40.4051Z" fill="black"/>
<path d="M62.8689 174.812C62.8689 176.052 62.6493 177.14 62.2116 178.075C61.7734 179.009 61.1464 179.731 60.3311 180.239C59.5153 180.746 58.5801 181 57.525 181C56.4818 181 55.5508 180.749 54.7322 180.247C53.9137 179.746 53.2798 179.028 52.8301 178.097C52.3804 177.164 52.1526 176.093 52.1471 174.881V174.257C52.1471 173.017 52.3703 171.925 52.8173 170.981C53.2637 170.038 53.8949 169.314 54.7106 168.808C55.5264 168.304 56.4589 168.051 57.508 168.051C58.5571 168.051 59.4891 168.304 60.3049 168.808C61.1207 169.314 61.7518 170.038 62.1987 170.981C62.6452 171.925 62.8689 173.014 62.8689 174.249V174.812ZM60.2401 174.24C60.2401 172.919 60.0036 171.915 59.5309 171.228C59.0582 170.541 58.3839 170.198 57.508 170.198C56.6375 170.198 55.966 170.537 55.4933 171.215C55.0207 171.893 54.7814 172.887 54.7754 174.196V174.812C54.7754 176.098 55.012 177.096 55.4846 177.806C55.9573 178.516 56.6375 178.871 57.525 178.871C58.3954 178.871 59.0642 178.529 59.5309 177.846C59.998 177.161 60.2341 176.165 60.2401 174.855V174.24Z" fill="black"/>
<path d="M74.9902 180.827H72.3968L67.3474 172.535V180.827H64.7535V168.224H67.3474L72.4051 176.534V168.224H74.9902V180.827Z" fill="black"/>
<path d="M81.3539 173.902L83.9739 168.224H86.8098L82.6767 176.256V180.827H80.0402V176.256L75.9071 168.224H78.7513L81.3539 173.902Z" fill="black"/>
<path d="M102.616 180.827H100.022V175.426H94.9639V180.827H92.3705V168.224H94.9639V173.331H100.022V168.224H102.616V180.827Z" fill="black"/>
<path d="M112.455 175.365H107.475V178.741H113.321V180.827H104.882V168.224H113.303V170.328H107.475V173.331H112.455V175.365Z" fill="black"/>
<path d="M121.95 178.23H117.402L116.537 180.827H113.779L118.465 168.224H120.869L125.581 180.827H122.824L121.95 178.23ZM118.102 176.127H121.25L119.667 171.41L118.102 176.127Z" fill="black"/>
<path d="M130.743 177.702L133.597 168.224H136.485L132.101 180.827H129.395L125.028 168.224H127.907L130.743 177.702Z" fill="black"/>
<path d="M145.243 175.365H140.263V178.741H146.108V180.827H137.669V168.224H146.091V170.328H140.263V173.331H145.243V175.365Z" fill="black"/>
<path d="M157.867 180.827H155.274L150.224 172.535V180.827H147.63V168.224H150.224L155.282 176.534V168.224H157.867V180.827Z" fill="black"/>
</g>
<defs>
<clipPath id="clip0_1_59">
<rect width="159" height="181" fill="white"/>
</clipPath>
</defs>
</svg>
